<svg width="1024" height="1024" viewBox="0 0 1024 1024" fill="none" xmlns="http://www.w3.org/2000/svg">
<g clip-path="url(#clip0_1_2)">
<path d="M1024 0H0V1024H1024V0Z" fill="#111111"/>
<path d="M784 112H240C169.308 112 112 169.308 112 240V784C112 854.692 169.308 912 240 912H784C854.692 912 912 854.692 912 784V240C912 169.308 854.692 112 784 112Z" fill="#1F1F1F"/>
<path d="M512 328C556.183 328 592 292.183 592 248C592 203.817 556.183 168 512 168C467.817 168 432 203.817 432 248C432 292.183 467.817 328 512 328Z" fill="#FF4136" stroke="#B32E26" stroke-width="8"/>
<path d="M512 504C556.183 504 592 468.183 592 424C592 379.817 556.183 344 512 344C467.817 344 432 379.817 432 424C432 468.183 467.817 504 512 504Z" fill="#2ECC40" stroke="#208F2D" stroke-width="8"/>
<path d="M512 680C556.183 680 592 644.183 592 600C592 555.817 556.183 520 512 520C467.817 520 432 555.817 432 600C432 644.183 467.817 680 512 680Z" fill="#0074D9" stroke="#005198" stroke-width="8"/>
<path d="M512 856C556.183 856 592 820.183 592 776C592 731.817 556.183 696 512 696C467.817 696 432 731.817 432 776C432 820.183 467.817 856 512 856Z" fill="#FFDC00" stroke="#B39A00" stroke-width="8"/>
</g>
<defs>
<clipPath id="clip0_1_2">
<rect width="1024" height="1024" fill="white"/>
</clipPath>
</defs>
</svg>
